# xmcd
#
# Track frame offsets:
#	150
#	22975
#	35782
#	53909
#	65410
#
# Disc length: 1255 seconds
#
# Revision: 1
# Processed by: cddbd v1.5.2PL0 Copyright (c) Steve Scherf et al.
# Submitted via: audiograbber 1.83.01
#
DISCID=3e04e505
DTITLE=Seven Years On - Starting Fires
DYEAR=1900
DGENRE=
TTITLE0=I'll Take My Chances
TTITLE1=Impossible
TTITLE2=In Limbo
TTITLE3=You Never Look My Way
TTITLE4=Starting Fires
EXTD=
EXTT0=
EXTT1=
EXTT2=
EXTT3=
EXTT4=
PLAYORDER=
